<svg width="245" height="72" viewBox="0 0 245 72" fill="none" xmlns="http://www.w3.org/2000/svg">
<path d="M10.2539 61H3.24707V25.9902H27.7588V32.9971H10.2539V40.0039H20.752V47.0107H10.2539V61ZM64.8926 43.6416C64.8926 45.3018 64.6729 46.9049 64.2334 48.4512C63.8102 49.9811 63.208 51.4215 62.4268 52.7725C61.6455 54.1071 60.7015 55.3278 59.5947 56.4346C58.488 57.5413 57.2673 58.4935 55.9326 59.291C54.598 60.0723 53.1576 60.6745 51.6113 61.0977C50.0651 61.5371 48.4619 61.7568 46.8018 61.7568C45.1416 61.7568 43.5384 61.5371 41.9922 61.0977C40.4622 60.6745 39.0218 60.0723 37.6709 59.291C36.3363 58.4935 35.1156 57.5413 34.0088 56.4346C32.902 55.3278 31.9499 54.1071 31.1523 52.7725C30.3711 51.4215 29.7607 49.9811 29.3213 48.4512C28.8981 46.9049 28.6865 45.3018 28.6865 43.6416C28.6865 41.9814 28.8981 40.3783 29.3213 38.832C29.7607 37.2858 30.3711 35.8454 31.1523 34.5107C31.9499 33.1761 32.902 31.9554 34.0088 30.8486C35.1156 29.7419 36.3363 28.7979 37.6709 28.0166C39.0218 27.2354 40.4622 26.6331 41.9922 26.21C43.5384 25.7705 45.1416 25.5508 46.8018 25.5508C48.4619 25.5508 50.0651 25.7705 51.6113 26.21C53.1576 26.6331 54.598 27.2354 55.9326 28.0166C57.2673 28.7979 58.488 29.7419 59.5947 30.8486C60.7015 31.9554 61.6455 33.1761 62.4268 34.5107C63.208 35.8454 63.8102 37.2858 64.2334 38.832C64.6729 40.3783 64.8926 41.9814 64.8926 43.6416ZM57.9346 43.6416C57.9346 42.1117 57.6416 40.6712 57.0557 39.3203C56.4697 37.9531 55.6722 36.7731 54.6631 35.7803C53.6702 34.7712 52.4902 33.9736 51.123 33.3877C49.7721 32.8018 48.3317 32.5088 46.8018 32.5088C45.2555 32.5088 43.807 32.8018 42.4561 33.3877C41.1051 33.9736 39.9251 34.7712 38.916 35.7803C37.9069 36.7731 37.1094 37.9531 36.5234 39.3203C35.9375 40.6712 35.6445 42.1117 35.6445 43.6416C35.6445 45.1715 35.9375 46.612 36.5234 47.9629C37.1094 49.2975 37.9069 50.4694 38.916 51.4785C39.9251 52.4876 41.1051 53.2852 42.4561 53.8711C43.807 54.457 45.2555 54.75 46.8018 54.75C48.3317 54.75 49.7721 54.457 51.123 53.8711C52.4902 53.2852 53.6702 52.4876 54.6631 51.4785C55.6722 50.4694 56.4697 49.2975 57.0557 47.9629C57.6416 46.612 57.9346 45.1715 57.9346 43.6416ZM76.5137 32.9971V47.0107H83.5205C84.4808 47.0107 85.3841 46.8317 86.2305 46.4736C87.0768 46.0993 87.8174 45.5947 88.4521 44.96C89.0869 44.3252 89.5833 43.5846 89.9414 42.7383C90.3158 41.8757 90.5029 40.9642 90.5029 40.0039C90.5029 39.0436 90.3158 38.1403 89.9414 37.2939C89.5833 36.4313 89.0869 35.6826 88.4521 35.0479C87.8174 34.4131 87.0768 33.9167 86.2305 33.5586C85.3841 33.1842 84.4808 32.9971 83.5205 32.9971H76.5137ZM76.5137 61H69.5068V25.9902H83.5205C84.8063 25.9902 86.0433 26.1611 87.2314 26.5029C88.4196 26.8285 89.5264 27.3005 90.5518 27.9189C91.5934 28.5212 92.5374 29.2536 93.3838 30.1162C94.2464 30.9626 94.9788 31.9066 95.5811 32.9482C96.1995 33.9899 96.6715 35.1048 96.9971 36.293C97.3389 37.4811 97.5098 38.7181 97.5098 40.0039C97.5098 41.2083 97.3551 42.3802 97.0459 43.5195C96.7529 44.6589 96.3216 45.7412 95.752 46.7666C95.1986 47.792 94.515 48.736 93.7012 49.5986C92.8874 50.4613 91.9759 51.21 90.9668 51.8447L94.8486 61H87.4023L84.3506 53.9443L76.5137 53.9932V61ZM136.865 61H129.883V36C129.883 35.5117 129.785 35.056 129.59 34.6328C129.411 34.2096 129.159 33.8434 128.833 33.5342C128.524 33.2087 128.158 32.9564 127.734 32.7773C127.311 32.5983 126.855 32.5088 126.367 32.5088C125.879 32.5088 125.423 32.5983 125 32.7773C124.577 32.9564 124.202 33.2087 123.877 33.5342C123.568 33.8434 123.324 34.2096 123.145 34.6328C122.965 35.056 122.876 35.5117 122.876 36V61H115.869V36C115.869 35.5117 115.78 35.056 115.601 34.6328C115.422 34.2096 115.169 33.8434 114.844 33.5342C114.535 33.2087 114.168 32.9564 113.745 32.7773C113.322 32.5983 112.866 32.5088 112.378 32.5088C111.89 32.5088 111.434 32.5983 111.011 32.7773C110.588 32.9564 110.213 33.2087 109.888 33.5342C109.578 33.8434 109.334 34.2096 109.155 34.6328C108.976 35.056 108.887 35.5117 108.887 36V61H101.88V36C101.88 34.5514 102.148 33.1924 102.686 31.9229C103.239 30.637 103.988 29.5221 104.932 28.5781C105.892 27.6178 107.007 26.8691 108.276 26.332C109.562 25.7786 110.929 25.502 112.378 25.502C113.68 25.502 114.933 25.738 116.138 26.21C117.342 26.6657 118.424 27.333 119.385 28.2119C120.345 27.333 121.419 26.6657 122.607 26.21C123.812 25.738 125.065 25.502 126.367 25.502C127.816 25.502 129.175 25.7786 130.444 26.332C131.73 26.8691 132.845 27.6178 133.789 28.5781C134.749 29.5221 135.498 30.637 136.035 31.9229C136.589 33.1924 136.865 34.5514 136.865 36V61ZM227.197 61H219.702L206.201 37.9531V61H199.194V25.9902H206.689L220.19 49.0615V25.9902H227.197V61Z" fill="#1C70EF"/>
<path d="M193 27.4702H142V61H193V27.4702Z" fill="#ADADAD"/>
<path fill-rule="evenodd" clip-rule="evenodd" d="M167.728 0C156.285 0 147.009 9.27609 147.009 20.7187V27.4702H156.116V19.4634C156.116 13.1762 161.213 8.07947 167.5 8.07947C173.787 8.07947 178.884 13.1762 178.884 19.4634V27.4702H188.446V20.7187C188.446 9.2761 179.17 0 167.728 0Z" fill="#ADADAD"/>
</svg>
