<svg width="92" height="88" viewBox="0 0 92 88" fill="none" xmlns="http://www.w3.org/2000/svg">
<path d="M46 88C71.4051 88 92 68.3005 92 44C92 19.6995 71.4051 0 46 0C20.5949 0 0 19.6995 0 44C0 68.3005 20.5949 88 46 88Z" fill="#387BCA"/>
<path d="M66.1579 38.0837H25V64.4285H66.1579V38.0837Z" fill="white"/>
<path fill-rule="evenodd" clip-rule="evenodd" d="M45.7627 16.5C36.5283 16.5 29.0423 23.986 29.0423 33.2204V38.0837H36.392V32.0352C36.392 26.9613 40.5051 22.8482 45.579 22.8482C50.6529 22.8482 54.766 26.9613 54.766 32.0352V38.0837H62.4831V33.2204C62.4831 23.986 54.9971 16.5 45.7627 16.5Z" fill="white"/>
</svg>
